<svg width="687" height="483" viewBox="0 0 687 483" fill="none" xmlns="http://www.w3.org/2000/svg">
<path d="M652.227 0H366.304V207.064H652.227V0Z" fill="#DEE8F5"/>
<path d="M652.227 0H366.304V17.057H652.227V0Z" fill="#C1D8ED"/>
<path d="M642.651 12.8078C645.014 12.8078 646.93 10.8919 646.93 8.52849C646.93 6.1651 645.014 4.24919 642.651 4.24919C640.287 4.24919 638.372 6.1651 638.372 8.52849C638.372 10.8919 640.287 12.8078 642.651 12.8078Z" fill="white"/>
<path d="M602.227 35.1507H393.964V180.742H602.227V35.1507Z" fill="white"/>
<path d="M558.762 162.487C556.784 162.487 550.159 161.444 549.687 163.123C549.404 164.131 554.338 165.323 554.338 165.323" fill="#E98862"/>
<path d="M559.802 170.432C559.802 170.432 546.434 175.925 538.754 169.658C538.558 169.498 538.416 169.283 538.345 169.041C538.273 168.799 538.277 168.541 538.355 168.301C538.432 168.061 538.581 167.849 538.78 167.695C538.979 167.54 539.221 167.449 539.473 167.434C544.651 167.127 555.287 166.084 554.044 162.671H562.395" fill="#E98862"/>
<path d="M535.366 113.478L528.079 117.074C528.079 117.074 520.994 116.223 522.111 107.267C522.27 105.998 523.022 104.568 526.499 105.74C525.826 104.209 525.18 102.273 525.706 101.747C527.729 99.7343 534.025 109.693 535.366 113.478Z" fill="#E98862"/>
<g opacity="0.15">
<path d="M535.366 113.478L528.079 117.074C528.079 117.074 520.994 116.223 522.111 107.267C522.27 105.998 523.022 104.568 526.499 105.74C525.826 104.209 525.18 102.273 525.706 101.747C527.729 99.7343 534.025 109.693 535.366 113.478Z" fill="black"/>
</g>
<path d="M548.855 155.25C548.489 155.25 548.123 155.221 547.761 155.164C546.713 154.995 545.719 154.587 544.855 153.971C543.99 153.355 543.28 152.548 542.779 151.612L524.401 117.296L536.554 110.788L550.663 137.13L572.523 116.339L582.024 126.326L553.609 153.353C552.326 154.572 550.624 155.251 548.855 155.25Z" fill="#004AAD"/>
<path d="M624.292 207.064H569.713L572.887 185.401L622.821 182.32L624.292 207.064Z" fill="#262626"/>
<path d="M606.95 114.041C606.95 114.041 601.671 111.774 601.671 97.9061L591.061 96.8246C591.061 96.8246 593.248 109.079 588.282 113.433L606.95 114.041Z" fill="#E98862"/>
<g opacity="0.15">
<path d="M590.212 110.676L598.35 103.322L591.525 103.81C591.519 106.16 591.073 108.489 590.212 110.676Z" fill="black"/>
</g>
<path d="M568.903 187.599C571.656 193.92 625.695 196.547 626.417 185.427C626.877 178.351 620.641 172.178 620.641 158.382C620.641 144.587 633.329 126.98 622.991 116.642C619.991 113.642 614.812 111.706 608.497 111.699C608.025 115.382 585.668 115.398 585.497 111.785C584.644 111.798 583.98 111.811 583.567 111.831C561.787 112.769 571.358 137.555 571.568 155.764C571.824 177.071 566.067 181.088 568.903 187.599Z" fill="#004AAD"/>
<path d="M607.164 92.0782C606.784 96.317 604.827 100.461 601.251 102.114C597.363 104.038 593.064 104.982 588.728 104.863C577.209 104.863 577.339 78.6613 582.357 73.162C587.375 67.6627 603.58 69.5563 606.212 77.85C607.574 82.1387 607.527 88.0432 607.164 92.0782Z" fill="#E98862"/>
<path d="M590.455 90.2035C590.981 90.2035 591.406 89.7779 591.406 89.2528C591.406 88.7278 590.981 88.3022 590.455 88.3022C589.93 88.3022 589.505 88.7278 589.505 89.2528C589.505 89.7779 589.93 90.2035 590.455 90.2035Z" fill="#0F1011"/>
<path d="M582.927 90.2035C583.452 90.2035 583.877 89.7779 583.877 89.2528C583.877 88.7278 583.452 88.3022 582.927 88.3022C582.402 88.3022 581.976 88.7278 581.976 89.2528C581.976 89.7779 582.402 90.2035 582.927 90.2035Z" fill="#0F1011"/>
<path d="M581.08 87.3687C580.965 87.369 580.854 87.3249 580.771 87.2454C580.688 87.166 580.638 87.0575 580.633 86.9424C580.628 86.8274 580.667 86.7148 580.743 86.6281C580.819 86.5415 580.925 86.4875 581.04 86.4774L583.549 86.2399C583.667 86.2285 583.784 86.2645 583.876 86.3398C583.967 86.4151 584.025 86.5238 584.037 86.6417C584.048 86.7597 584.012 86.8773 583.937 86.9688C583.861 87.0603 583.753 87.1181 583.635 87.1295L581.126 87.367L581.08 87.3687Z" fill="#0F1011"/>
<path d="M592.324 87.3687C592.301 87.3687 592.277 87.367 592.254 87.3635L589.729 86.9704C589.612 86.9521 589.507 86.8881 589.437 86.7924C589.368 86.6967 589.339 86.5772 589.357 86.4602C589.375 86.3431 589.439 86.2381 589.535 86.1683C589.63 86.0984 589.75 86.0694 589.867 86.0877L592.392 86.4808C592.503 86.4979 592.604 86.5564 592.674 86.6445C592.744 86.7327 592.778 86.844 592.77 86.9563C592.761 87.0685 592.71 87.1734 592.628 87.2498C592.545 87.3263 592.437 87.3688 592.324 87.3687Z" fill="#0F1011"/>
<path d="M590.628 96.7541C588.648 97.1184 586.618 97.1184 584.637 96.7541C584.637 96.7541 584.845 99.0572 587.633 99.0572C590.42 99.0572 590.628 96.7541 590.628 96.7541Z" fill="white"/>
<path d="M598.578 81.8806C599.144 101.031 601.922 102.787 601.922 102.787C601.922 102.787 610.979 96.2757 611.284 84.7197C611.57 73.889 603.14 68.2013 597.698 67.4425C577.015 64.5664 576.289 83.2417 576.289 83.2417C586.669 85.0208 600.809 82.0811 600.809 82.0811" fill="#0F1011"/>
<path d="M595.577 91.1679C595.569 91.7024 595.668 92.233 595.867 92.729C596.066 93.2251 596.362 93.6766 596.737 94.0573C597.112 94.4379 597.559 94.7403 598.052 94.9466C598.545 95.153 599.074 95.2592 599.609 95.2592C600.143 95.2592 600.673 95.153 601.166 94.9466C601.659 94.7403 602.106 94.4379 602.481 94.0573C602.856 93.6766 603.152 93.2251 603.351 92.729C603.55 92.233 603.649 91.7024 603.641 91.1679C603.65 90.6359 603.552 90.1075 603.352 89.6143C603.153 89.121 602.856 88.6729 602.48 88.2966C602.104 87.9204 601.655 87.6237 601.162 87.4242C600.669 87.2248 600.14 87.1266 599.608 87.1355C596.737 87.2775 595.577 88.9414 595.577 91.1679Z" fill="#E98862"/>
<path d="M615.038 84.7206C620.115 84.7206 624.231 80.6045 624.231 75.5271C624.231 70.4496 620.115 66.3335 615.038 66.3335C609.96 66.3335 605.844 70.4496 605.844 75.5271C605.844 80.6045 609.96 84.7206 615.038 84.7206Z" fill="#0F1011"/>
<path d="M585.497 111.785C585.669 115.398 587.63 120.705 593.689 121.106C601.763 121.638 608.025 115.382 608.498 111.699H608.478C600.529 111.699 590.131 111.713 585.497 111.785Z" fill="#E98862"/>
<path d="M598.352 176.168C598.278 176.168 598.206 176.168 598.132 176.168L556.884 174.906L557.321 160.6L593.905 161.719L613.206 121.329L626.12 127.5L604.807 172.1C604.225 173.318 603.31 174.346 602.167 175.066C601.025 175.786 599.702 176.168 598.352 176.168Z" fill="#004AAD"/>
<g opacity="0.15">
<path d="M586.651 94.8562C586.627 94.8564 586.604 94.8541 586.58 94.8493L584.241 94.3331C584.196 94.3231 584.153 94.3036 584.116 94.2757C584.078 94.2479 584.047 94.2125 584.025 94.1718C584.002 94.1311 583.989 94.0861 583.985 94.0398C583.981 93.9934 583.987 93.9468 584.003 93.9029L585.23 90.4392C585.259 90.3572 585.319 90.2901 585.398 90.2527C585.476 90.2152 585.567 90.2105 585.649 90.2396C585.731 90.2687 585.798 90.3292 585.835 90.4078C585.873 90.4864 585.877 90.5766 585.848 90.6586L584.745 93.7765L586.724 94.2066C586.804 94.2232 586.874 94.2689 586.922 94.3348C586.97 94.4007 586.992 94.482 586.983 94.563C586.974 94.644 586.936 94.7188 586.875 94.7728C586.814 94.8269 586.735 94.8563 586.654 94.8553L586.651 94.8562Z" fill="black"/>
</g>
<path d="M502.435 75.1072L528.562 116.756C528.685 116.953 528.846 117.123 529.035 117.258C529.225 117.392 529.438 117.488 529.665 117.54C529.891 117.592 530.125 117.598 530.354 117.56C530.583 117.521 530.802 117.438 530.999 117.314C531.195 117.191 531.366 117.03 531.5 116.841C531.635 116.652 531.73 116.438 531.782 116.212C531.834 115.986 531.841 115.751 531.802 115.522C531.764 115.294 531.68 115.075 531.557 114.878L531.527 114.831L504.084 74.0309C504.013 73.9227 503.922 73.8294 503.815 73.7565C503.708 73.6835 503.588 73.6323 503.462 73.6057C503.335 73.5792 503.205 73.5778 503.078 73.6017C502.951 73.6255 502.83 73.6742 502.721 73.7449C502.613 73.8155 502.52 73.9068 502.447 74.0135C502.374 74.1203 502.323 74.2403 502.296 74.3668C502.27 74.4933 502.268 74.6238 502.292 74.7508C502.316 74.8779 502.365 74.999 502.435 75.1072Z" fill="#0F1011"/>
<path d="M521.277 104.655C522.659 104.109 525.855 104.188 526.727 105.739C528.202 108.363 528.657 114.393 527.119 115.071C525.581 115.75 522.886 115.496 522.091 113.695C521.295 111.893 520.158 105.098 521.277 104.655Z" fill="#E98862"/>
<path d="M686.766 482.348H0C7.52535 463.158 21.4223 446.878 41.0121 442.048C69.6699 434.994 99.9967 454.394 128.594 447.099C144.839 442.959 157.629 430.893 171.067 420.876C221.768 383.076 291.243 371.904 351.243 391.91C382.601 402.363 411.176 420.645 443.299 428.414C484.839 438.468 528.28 430.135 570.998 428.758C612.597 427.418 672.208 444.373 686.766 482.348Z" fill="#F3F5FD"/>
<path d="M600.337 283.075L591.47 285.171L602.586 332.188L611.453 330.092L600.337 283.075Z" fill="#F0F6FF"/>
<path d="M610.092 279.429L602.48 320.697L607.402 321.605L615.015 280.337L610.092 279.429Z" fill="#C1D8ED"/>
<path d="M610.095 279.415L609.229 283.967L614.146 284.903L615.012 280.351L610.095 279.415Z" fill="#DEE8F5"/>
<path d="M594.852 289.91L592.119 290.987L608.07 331.477L610.804 330.4L594.852 289.91Z" fill="#FF9924"/>
<path d="M615.403 307.632H591.359V338.364H615.403V307.632Z" fill="#C1D8ED"/>
<path d="M527.173 393.874H518.18V482.347H527.173V393.874Z" fill="#C1D8ED"/>
<path d="M519.771 393.874H510.778V482.347H519.771V393.874Z" fill="#DEE8F5"/>
<path d="M639.192 393.874H630.199V482.347H639.192V393.874Z" fill="#C1D8ED"/>
<path d="M631.791 393.874H622.798V482.347H631.791V393.874Z" fill="#DEE8F5"/>
<path d="M551.839 393.874H542.846V482.347H551.839V393.874Z" fill="#C1D8ED"/>
<path d="M544.438 393.874H535.445V482.347H544.438V393.874Z" fill="#DEE8F5"/>
<path d="M663.86 393.874H654.867V482.347H663.86V393.874Z" fill="#C1D8ED"/>
<path d="M656.458 393.874H647.465V482.347H656.458V393.874Z" fill="#DEE8F5"/>
<path d="M663.86 337.243H542.902V395.996H663.86V337.243Z" fill="#C1D8ED"/>
<path d="M631.736 337.243H510.778V395.996H631.736V337.243Z" fill="#DEE8F5"/>
<g opacity="0.53">
<path d="M625.228 345.595H517.285V387.384H625.228V345.595Z" fill="#F3F5FD"/>
</g>
<path d="M571.256 371.283C573.904 371.283 576.05 369.136 576.05 366.489C576.05 363.841 573.904 361.695 571.256 361.695C568.609 361.695 566.462 363.841 566.462 366.489C566.462 369.136 568.609 371.283 571.256 371.283Z" fill="white"/>
<path d="M232.912 70.8709C250.153 70.8709 264.131 56.8937 264.131 39.652C264.131 22.4102 250.153 8.433 232.912 8.433C215.67 8.433 201.693 22.4102 201.693 39.652C201.693 56.8937 215.67 70.8709 232.912 70.8709Z" fill="#C1D8ED"/>
<path d="M239.274 70.8709C256.516 70.8709 270.493 56.8937 270.493 39.652C270.493 22.4102 256.516 8.433 239.274 8.433C222.032 8.433 208.055 22.4102 208.055 39.652C208.055 56.8937 222.032 70.8709 239.274 70.8709Z" fill="#DEE8F5"/>
<path d="M239.274 66.2716C253.975 66.2716 265.893 54.3536 265.893 39.652C265.893 24.9504 253.975 13.0323 239.274 13.0323C224.572 13.0323 212.654 24.9504 212.654 39.652C212.654 54.3536 224.572 66.2716 239.274 66.2716Z" fill="#F3F5FD"/>
<path d="M239.275 42.1082C239.056 42.1083 238.841 42.0523 238.651 41.9456L225.806 34.7257C225.512 34.5603 225.295 34.2847 225.204 33.9597C225.113 33.6347 225.155 33.2868 225.32 32.9925C225.486 32.6983 225.761 32.4818 226.086 32.3908C226.411 32.2997 226.759 32.3415 227.053 32.5069L238.001 38.6609V21.1642C238.01 20.8324 238.148 20.517 238.386 20.2853C238.623 20.0537 238.942 19.924 239.274 19.924C239.606 19.924 239.925 20.0537 240.163 20.2853C240.4 20.517 240.538 20.8324 240.547 21.1642V40.8358C240.547 41.0029 240.514 41.1684 240.45 41.3229C240.386 41.4773 240.293 41.6176 240.175 41.7358C240.056 41.854 239.916 41.9477 239.762 42.0116C239.607 42.0755 239.442 42.1083 239.275 42.1082Z" fill="#DEE8F5"/>
<path d="M256.564 270.21C256.344 270.205 202.836 270.317 202.73 270.317C195.224 270.317 192.324 274.666 192.324 274.666V277.011H265.483V274.666C262.178 272.425 259.17 270.145 256.564 270.21Z" fill="#DEE8F5"/>
<path d="M246.371 275.243C246.371 275.243 250.23 269.702 256.564 270.21C258.282 270.274 259.967 270.705 261.505 271.474C263.044 272.242 264.4 273.331 265.482 274.666V277.01H225.658V274.666C225.658 274.666 228.559 270.317 236.069 270.317C243.578 270.317 246.371 275.243 246.371 275.243Z" fill="#C1D8ED"/>
<path d="M225.658 274.666H192.324V277.01H225.658V274.666Z" fill="#C1D8ED"/>
<path d="M106.487 348.561L71.4698 481.687L76.462 483L111.479 349.874L106.487 348.561Z" fill="#C1D8ED"/>
<path d="M168.54 348.816L163.44 349.616L184.314 482.743L189.413 481.944L168.54 348.816Z" fill="#C1D8ED"/>
<path d="M101.8 221.516C101.8 221.516 59.1578 218.823 59.1578 256.08C59.1578 293.338 65.4383 345.405 96.8629 351.24C128.287 357.076 174.707 355.318 185.488 353.489C198.73 351.244 204.502 320.529 186.865 318.473C136.812 312.638 161.055 225.557 101.8 221.516Z" fill="#C1D8ED"/>
<path d="M183.318 456.581L181.696 477.624L199.709 479.012L201.332 457.97L183.318 456.581Z" fill="#E98862"/>
<path d="M222.599 482.186C223.063 482.184 223.522 482.091 223.95 481.912C224.378 481.732 224.766 481.47 225.093 481.141C225.419 480.811 225.678 480.42 225.853 479.991C226.029 479.561 226.118 479.102 226.116 478.638C226.116 478.552 226.116 478.466 226.106 478.38C226.053 477.708 225.81 477.066 225.405 476.528C225 475.99 224.45 475.579 223.819 475.343L202.79 468.3C202.382 468.165 201.951 468.12 201.524 468.167C201.098 468.215 200.687 468.354 200.319 468.575C197.428 470.581 193.97 471.606 190.453 471.5C187.713 471.305 185.084 470.344 182.864 468.727C182.669 468.566 182.433 468.465 182.182 468.435C181.932 468.404 181.678 468.445 181.45 468.553C181.222 468.662 181.029 468.832 180.895 469.046C180.76 469.259 180.689 469.507 180.689 469.759V480.042C180.689 480.653 180.932 481.239 181.364 481.671C181.796 482.103 182.382 482.346 182.993 482.346H183.003L222.599 482.186Z" fill="#C1D8ED"/>
<path d="M272.899 455.776L255.082 458.773L258.622 479.816L276.439 476.819L272.899 455.776Z" fill="#E98862"/>
<path d="M282.104 460.382L242.443 307.773C241.556 304.363 239.563 301.343 236.776 299.188C233.989 297.032 230.566 295.862 227.043 295.861H140.104V295.917H91.4014V310.839C91.4013 315.142 92.2487 319.403 93.8953 323.378C95.542 327.354 97.9555 330.966 100.998 334.009C104.041 337.052 107.653 339.465 111.629 341.112C115.604 342.759 119.865 343.606 124.168 343.606H147.922V343.701H189.39L177.972 465.11L209.665 468.09L220.705 350.692L251.299 468.39L282.104 460.382Z" fill="#262626"/>
<path d="M215.87 222.978C215.87 222.978 215.999 212.645 223.385 213.182C228.045 213.521 250.186 212.494 250.515 214.511C251.331 219.501 231.078 220.721 229.241 225.37L215.87 222.978Z" fill="#E98862"/>
<path d="M220.77 213.514C220.77 213.514 231.05 210.158 233.577 210.76C235.814 211.293 231.151 214.934 231.151 214.934L220.77 213.514Z" fill="#E98862"/>
<path d="M194.636 268.319L231.315 225.618L215.507 216.729L186.137 249.772L163.166 208.656C160.993 202.158 156.043 197.804 145.942 197.368C145.4 197.351 144.531 197.325 143.413 197.308C143.189 202.04 113.878 202.023 113.258 197.196C104.982 197.205 98.1852 199.752 94.262 203.675C80.7118 217.225 97.342 240.316 97.342 258.383C97.342 276.45 89.1689 284.555 89.7711 293.829C90.7175 308.403 161.549 304.962 165.154 296.677C167.571 291.126 165.228 286.955 163.385 277.029H194.636L194.636 268.319ZM161.662 254.942C161.697 251.903 161.932 248.722 162.254 245.485L169.395 258.27H161.664C161.653 257.194 161.649 256.095 161.664 254.943L161.662 254.942Z" fill="#004AAD"/>
<path d="M143.418 197.309C143.194 202.041 140.613 209.001 132.681 209.517C122.09 210.222 113.883 202.024 113.263 197.197H113.298C123.703 197.197 137.331 197.214 143.418 197.309Z" fill="#E98862"/>
<path d="M296.849 482.187C297.314 482.184 297.773 482.091 298.201 481.911C298.628 481.732 299.017 481.469 299.343 481.14C299.67 480.81 299.928 480.419 300.104 479.99C300.28 479.56 300.369 479.1 300.366 478.636C300.366 478.55 300.366 478.464 300.356 478.378C300.303 477.706 300.06 477.064 299.655 476.526C299.25 475.988 298.699 475.577 298.069 475.342L277.04 468.298C276.633 468.163 276.201 468.118 275.774 468.166C275.348 468.213 274.936 468.352 274.568 468.573C271.678 470.579 268.22 471.604 264.703 471.499C261.963 471.303 259.334 470.342 257.114 468.725C256.919 468.565 256.682 468.465 256.432 468.434C256.182 468.404 255.928 468.445 255.7 468.553C255.473 468.662 255.28 468.832 255.146 469.045C255.011 469.258 254.94 469.505 254.94 469.757V480.04C254.939 480.651 255.182 481.237 255.613 481.669C256.044 482.101 256.63 482.345 257.24 482.346H257.25L296.849 482.187Z" fill="#C1D8ED"/>
<path d="M50.1915 285.369H42.1121V482.348H50.1915V285.369Z" fill="#DEE8F5"/>
<path d="M439.901 285.369H431.821V482.348H439.901V285.369Z" fill="#C1D8ED"/>
<path d="M439.9 282.9H367.034V468.879H439.9V282.9Z" fill="#C1D8ED"/>
<path d="M360.567 455.41H352.487V482.348H360.567V455.41Z" fill="#C1D8ED"/>
<path d="M451.07 277.233H30.9414V288.343H451.07V277.233Z" fill="#DEE8F5"/>
<path d="M371.074 285.369H362.995V482.348H371.074V285.369Z" fill="#DEE8F5"/>
<path d="M291.74 285.369H283.661V482.348H291.74V285.369Z" fill="#DEE8F5"/>
<path d="M367.034 288.357H287.7V468.879H367.034V288.357Z" fill="#DEE8F5"/>
<path d="M287.142 227.509L276.696 271.362C276.534 272.045 276.528 272.755 276.68 273.44C276.831 274.124 277.135 274.766 277.57 275.316C278.005 275.867 278.558 276.311 279.189 276.617C279.82 276.923 280.512 277.082 281.214 277.083H342.8C343.817 277.083 344.807 276.748 345.616 276.132C346.425 275.515 347.009 274.649 347.279 273.668L359.316 229.816C359.505 229.127 359.532 228.403 359.396 227.701C359.259 227 358.963 226.339 358.53 225.771C358.096 225.202 357.538 224.741 356.897 224.424C356.257 224.107 355.552 223.942 354.837 223.942H291.661C290.616 223.942 289.602 224.294 288.782 224.941C287.962 225.589 287.385 226.493 287.142 227.509Z" fill="#9EBCEA"/>
<path d="M254.771 277.083H329.206C329.93 277.083 330.624 276.795 331.136 276.283C331.648 275.772 331.935 275.078 331.935 274.354C331.935 273.63 331.648 272.936 331.136 272.424C330.624 271.912 329.93 271.625 329.206 271.625H254.771C254.413 271.625 254.058 271.695 253.727 271.833C253.396 271.97 253.095 272.171 252.842 272.424C252.588 272.678 252.387 272.978 252.25 273.309C252.113 273.641 252.042 273.995 252.042 274.354C252.042 274.712 252.113 275.067 252.25 275.398C252.387 275.729 252.588 276.03 252.842 276.283C253.095 276.537 253.396 276.738 253.727 276.875C254.058 277.012 254.413 277.083 254.771 277.083Z" fill="#9EBCEA"/>
<path d="M320.527 257.363C324.55 257.363 327.811 254.102 327.811 250.079C327.811 246.057 324.55 242.796 320.527 242.796C316.505 242.796 313.244 246.057 313.244 250.079C313.244 254.102 316.505 257.363 320.527 257.363Z" fill="white"/>
<path d="M207.341 272.523C205.663 273.839 198.402 274.252 194.634 274.381V260.418C196.552 259.386 198.944 258.052 200.725 256.917C203.194 255.334 204.313 254.878 204.932 255.05H204.941C205.087 255.092 205.219 255.176 205.319 255.291C205.403 255.383 205.467 255.491 205.508 255.609C205.913 256.701 204.063 258.345 203.039 259.153L203.031 259.162C202.661 259.455 202.394 259.644 202.394 259.644L204.579 260.65L204.588 260.659L206.498 261.545L206.524 261.554L207.556 262.027C207.556 262.027 207.737 262.784 207.935 263.894V263.902C208.397 266.561 208.957 271.258 207.341 272.523Z" fill="#E98862"/>
<path d="M219.734 272.542L215.295 271.028L202.217 258.366L200.442 256.641L197.27 253.573L200.24 250.512L203.44 253.612L205.22 255.33L218.258 267.961L219.734 272.542Z" fill="#FF9924"/>
<path d="M205.22 255.33L202.217 258.366L200.442 256.641L203.44 253.612L205.22 255.33Z" fill="white"/>
<path d="M203.712 259.367C204.837 259.387 205.961 259.48 207.074 259.646C208.221 259.795 209.352 260.049 210.453 260.406C211.064 260.601 211.656 260.852 212.22 261.158C212.536 261.332 212.838 261.531 213.122 261.752L213.755 262.3C214.587 263.05 215.347 263.877 216.024 264.77C216.209 265.016 216.301 265.319 216.284 265.626C216.266 265.933 216.141 266.224 215.93 266.448C215.718 266.671 215.435 266.813 215.129 266.847C214.823 266.881 214.515 266.807 214.26 266.636L214.199 266.595L211.704 264.923L211.08 264.512C210.935 264.43 210.785 264.356 210.632 264.292C210.248 264.137 209.852 264.016 209.448 263.932C208.516 263.737 207.572 263.602 206.623 263.526C205.653 263.451 204.619 263.393 203.684 263.377H203.64C203.376 263.372 203.117 263.316 202.875 263.211C202.634 263.106 202.415 262.954 202.233 262.765C202.05 262.575 201.906 262.352 201.809 262.107C201.713 261.862 201.666 261.6 201.67 261.337C201.675 261.074 201.731 260.814 201.836 260.573C201.941 260.331 202.093 260.113 202.282 259.93C202.472 259.747 202.695 259.603 202.94 259.507C203.185 259.41 203.447 259.363 203.71 259.368L203.712 259.367Z" fill="#E98862"/>
<path d="M150.88 149.717C150.88 149.717 157.402 173.083 161.065 185.208C161.239 185.782 161.275 186.389 161.172 186.98C161.069 187.572 160.828 188.13 160.47 188.612C160.112 189.094 159.647 189.485 159.11 189.754C158.574 190.023 157.982 190.163 157.382 190.162H134.497C133.508 190.162 132.558 189.781 131.843 189.099C131.127 188.417 130.702 187.486 130.655 186.498L129.112 153.971L150.88 149.717Z" fill="#0F1011"/>
<path d="M115.808 201.693C115.808 201.693 122.464 198.172 120.995 180.055L134.742 177.519C134.742 177.519 133.183 193.759 140.132 198.922L115.808 201.693Z" fill="#E98862"/>
<g opacity="0.15">
<path d="M137.319 195.525L125.908 186.779L134.877 186.693C135.133 189.763 135.961 192.759 137.319 195.525Z" fill="black"/>
</g>
<path d="M113.202 173.024C114.149 178.521 117.143 183.729 121.991 185.508C127.273 187.611 132.99 188.388 138.642 187.773C153.69 186.553 150.745 152.337 143.606 145.685C136.468 139.033 115.499 143.222 112.939 154.335C111.615 160.083 112.301 167.796 113.202 173.024Z" fill="#E98862"/>
<path d="M134.732 168.81C135.42 168.81 135.978 168.252 135.978 167.563C135.978 166.875 135.42 166.316 134.732 166.316C134.043 166.316 133.485 166.875 133.485 167.563C133.485 168.252 134.043 168.81 134.732 168.81Z" fill="#0F1011"/>
<path d="M144.567 168.012C145.256 168.012 145.814 167.454 145.814 166.766C145.814 166.077 145.256 165.519 144.567 165.519C143.879 165.519 143.32 166.077 143.32 166.766C143.32 167.454 143.879 168.012 144.567 168.012Z" fill="#0F1011"/>
<path d="M146.729 164.111H146.722L143.418 164.066C143.262 164.064 143.114 164 143.006 163.889C142.897 163.778 142.837 163.628 142.839 163.473C142.841 163.317 142.905 163.169 143.016 163.06C143.127 162.952 143.277 162.892 143.432 162.894L146.735 162.939C146.891 162.94 147.039 163.003 147.148 163.113C147.257 163.224 147.318 163.373 147.317 163.529C147.316 163.684 147.253 163.833 147.143 163.942C147.032 164.051 146.883 164.112 146.727 164.111L146.729 164.111Z" fill="#0F1011"/>
<path d="M132.043 165.302C131.9 165.302 131.762 165.249 131.655 165.154C131.548 165.058 131.48 164.927 131.463 164.785C131.446 164.642 131.482 164.499 131.564 164.381C131.646 164.264 131.768 164.18 131.907 164.147L135.163 163.366C135.238 163.346 135.317 163.342 135.394 163.353C135.472 163.364 135.546 163.39 135.613 163.43C135.68 163.47 135.738 163.523 135.784 163.586C135.831 163.649 135.864 163.72 135.882 163.796C135.9 163.872 135.903 163.951 135.891 164.028C135.878 164.105 135.85 164.178 135.809 164.244C135.767 164.311 135.713 164.368 135.649 164.413C135.585 164.457 135.513 164.489 135.436 164.505L132.181 165.286C132.136 165.297 132.09 165.302 132.043 165.302Z" fill="#0F1011"/>
<path d="M135.3 177.381C135.3 177.381 139.901 177.871 143.129 176.747C143.129 176.747 143.1 179.777 139.459 180.073C135.817 180.369 135.3 177.381 135.3 177.381Z" fill="white"/>
<g opacity="0.15">
<path d="M140.26 174.483C140.157 174.483 140.057 174.446 139.979 174.378C139.901 174.311 139.85 174.218 139.835 174.116C139.82 174.014 139.841 173.91 139.896 173.823C139.951 173.736 140.036 173.672 140.134 173.641L142.669 172.867L140.899 168.916C140.874 168.865 140.859 168.808 140.856 168.751C140.853 168.693 140.862 168.636 140.881 168.581C140.901 168.527 140.931 168.478 140.971 168.435C141.01 168.393 141.057 168.359 141.11 168.336C141.162 168.312 141.219 168.299 141.277 168.298C141.334 168.297 141.392 168.307 141.445 168.329C141.499 168.35 141.547 168.382 141.588 168.422C141.629 168.463 141.662 168.511 141.684 168.564L143.852 173.405L140.386 174.467C140.345 174.478 140.302 174.483 140.26 174.483Z" fill="black"/>
</g>
<path d="M151.665 152.518C151.665 152.518 149.462 134.698 120.908 139.075C113.79 140.166 103.702 145.723 102.067 163.938C101.32 172.294 98.4398 180.172 96.2425 185.159C95.9824 185.744 95.8727 186.385 95.9233 187.024C95.9738 187.662 96.1831 188.278 96.532 188.815C96.8809 189.353 97.3585 189.794 97.9214 190.1C98.4843 190.406 99.1146 190.566 99.7552 190.567L119.827 190.574C120.845 190.575 121.823 190.172 122.544 189.453C123.266 188.734 123.672 187.758 123.674 186.74C123.674 186.683 123.674 186.626 123.674 186.568C123.53 183.151 123.416 177.367 123.611 168.527C124.654 163.481 121.874 159.923 125.909 161.083C140.891 165.382 150.54 152.807 151.665 152.518Z" fill="#0F1011"/>
<path d="M128.433 172.927C128.489 173.619 128.408 174.315 128.195 174.976C127.982 175.636 127.641 176.248 127.192 176.777C126.742 177.306 126.193 177.741 125.575 178.058C124.958 178.374 124.284 178.566 123.592 178.622C122.9 178.678 122.204 178.598 121.544 178.385C120.883 178.172 120.271 177.831 119.742 177.381C118.674 176.474 118.01 175.179 117.897 173.782C117.763 172.41 118.179 171.042 119.053 169.977C119.928 168.912 121.19 168.238 122.561 168.103C122.619 168.098 122.679 168.093 122.737 168.09C126.505 167.968 128.196 170.021 128.433 172.927Z" fill="#E98862"/>
<path d="M506.479 144.305H426.019C425.676 144.305 425.348 144.169 425.106 143.927C424.864 143.685 424.728 143.357 424.728 143.014V62.5541C424.728 62.2988 424.804 62.0493 424.946 61.8371C425.088 61.6249 425.289 61.4596 425.525 61.3619C425.761 61.2643 426.02 61.2388 426.271 61.2887C426.521 61.3386 426.751 61.4616 426.931 61.6421L507.391 142.102C507.571 142.283 507.694 142.513 507.743 142.763C507.793 143.013 507.768 143.272 507.67 143.508C507.572 143.744 507.407 143.945 507.195 144.087C506.983 144.229 506.734 144.305 506.479 144.305ZM427.309 141.724H503.363L427.309 65.6702V141.724Z" fill="#C1D8ED"/>
<path d="M442.416 144.305H426.019C425.677 144.305 425.348 144.169 425.106 143.927C424.864 143.685 424.728 143.357 424.728 143.014V126.618C424.728 126.276 424.864 125.948 425.106 125.705C425.348 125.463 425.677 125.328 426.019 125.328H442.416C442.758 125.328 443.086 125.463 443.328 125.705C443.57 125.948 443.706 126.276 443.706 126.618V143.014C443.706 143.357 443.57 143.685 443.328 143.927C443.086 144.169 442.758 144.305 442.416 144.305ZM427.309 141.724H441.125V127.909H427.309V141.724Z" fill="#C1D8ED"/>
</svg>
